<?xml version="1.0" encoding="UTF-8"?>
<svg version="1.1" xmlns="http://www.w3.org/2000/svg" width="127" height="91">
<path d="M0 0 C41.91 0 83.82 0 127 0 C127 30.03 127 60.06 127 91 C85.09 91 43.18 91 0 91 C0 60.97 0 30.94 0 0 Z " fill="#282828" transform="translate(0,0)"/>
<path d="M0 0 C1.30807617 0.00290039 1.30807617 0.00290039 2.64257812 0.00585938 C8.82947054 0.13231365 13.14826913 1.20812246 17.99047852 5.29541016 C20.33151798 8.02129009 20.90404921 10.06357469 21.71875 13.55078125 C22.00137695 14.72511719 22.28400391 15.89945313 22.57519531 17.109375 C23.00203613 18.97335938 23.00203613 18.97335938 23.4375 20.875 C24.04607522 23.42336821 24.65544301 25.97154729 25.265625 28.51953125 C25.55373047 29.7410791 25.84183594 30.96262695 26.13867188 32.22119141 C27.08738241 36.18942256 28.11782395 40.1252693 29.1875 44.0625 C29.4865625 45.17496094 29.785625 46.28742187 30.09375 47.43359375 C30.67599234 49.59274241 31.25939736 51.75157776 31.84375 53.91015625 C32.1221875 54.97105469 32.400625 56.03195313 32.6875 57.125 C32.92984375 58.03378906 33.1721875 58.94257812 33.421875 59.87890625 C33.9375 62.5625 33.9375 62.5625 33.9375 68.5625 C29.6475 68.5625 25.3575 68.5625 20.9375 68.5625 C19.39555003 64.54002182 17.98340353 60.74611411 16.9375 56.5625 C6.3775 56.2325 -4.1825 55.9025 -15.0625 55.5625 C-15.0625 57.2125 -15.0625 58.8625 -15.0625 60.5625 C-15.69649776 62.57309476 -16.36991771 64.57132592 -17.0625 66.5625 C-18.1830152 70.85083535 -19.18948166 75.16862831 -20.20703125 79.48242188 C-20.41714844 80.34802734 -20.62726562 81.21363281 -20.84375 82.10546875 C-21.03001953 82.88946045 -21.21628906 83.67345215 -21.40820312 84.48120117 C-22.0625 86.5625 -22.0625 86.5625 -24.0625 89.5625 C-27.40176306 89.97306513 -30.70585548 89.69160171 -34.0625 89.5625 C-34.75712348 77.36684692 -32.70032394 66.56448281 -29.875 54.75 C-29.48231921 53.04394251 -29.09103781 51.33756231 -28.70117188 49.63085938 C-26.4309681 39.79593751 -23.88695549 30.0585182 -21.12133789 20.35180664 C-20.48151389 18.0620422 -19.87525215 15.76200761 -19.33374023 13.44702148 C-18.03397625 8.14828589 -16.43559578 5.24112552 -12.19335938 1.78857422 C-8.28715037 -0.45901762 -4.39534769 -0.18599467 0 0 Z " fill="#F6F6F7" transform="translate(34.0625,0.4375)"/>
<path d="M0 0 C0.83789062 -0.01611328 1.67578125 -0.03222656 2.5390625 -0.04882812 C9.22926001 -0.05408771 13.46308372 1.19971818 18.375 6 C21.52863051 10.11080271 22.18170096 14.72633594 23.03500366 19.704422 C24.26245053 26.79254754 25.89143228 33.72970262 27.6640625 40.69921875 C28.25034032 43.04223258 28.83626747 45.38533418 29.421875 47.72851562 C30.33748541 51.37643549 31.25597569 55.02355948 32.18066406 58.66918945 C33.07932996 62.21882445 33.96624957 65.77123346 34.8515625 69.32421875 C35.26869003 70.94948738 35.26869003 70.94948738 35.69424438 72.60758972 C37.11475422 78.34410366 37.94016078 83.40212561 37.625 89.3125 C35.66674127 89.33944851 33.70837774 89.35887218 31.75 89.375 C30.11417969 89.39240234 30.11417969 89.39240234 28.4453125 89.41015625 C25.625 89.3125 25.625 89.3125 23.625 88.3125 C21.01201843 81.06555892 19.29816769 73.5142226 18.1171875 65.91015625 C17.5018649 62.66262031 16.53304004 59.49064015 15.625 56.3125 C4.735 55.9825 -6.155 55.6525 -17.375 55.3125 C-21.91554054 45.09628378 -21.91554054 45.09628378 -22.625 41.3125 C-22.77453125 40.57 -22.9240625 39.8275 -23.078125 39.0625 C-23.89204126 31.52306514 -23.15060035 24.93242131 -21.1875 17.625 C-20.99091797 16.80966797 -20.79433594 15.99433594 -20.59179688 15.15429688 C-19.03358823 9.22351505 -16.96842373 4.48034509 -11.48510742 1.17236328 C-7.76528847 -0.34345326 -3.9665029 -0.01511625 0 0 Z " fill="#F3F3F4" transform="translate(89.375,0.6875)"/>
<path d="M0 0 C2.5625 0.734375 2.5625 0.734375 4.97729492 3.23828125 C9.50659484 7.09172449 14.81499178 6.44260214 20.48828125 6.40625 C22.20328072 6.42537445 22.20328072 6.42537445 23.95292664 6.44488525 C27.59387133 6.48115085 31.2338906 6.48389423 34.875 6.484375 C38.53361767 6.50595694 42.19209439 6.53435036 45.85063171 6.56671143 C48.12533382 6.5845381 50.40010999 6.59476419 52.67488098 6.59686279 C53.6965184 6.60066956 54.71815582 6.60447632 55.77075195 6.60839844 C56.67420853 6.60886169 57.5776651 6.60932495 58.50849915 6.60980225 C60.5625 6.734375 60.5625 6.734375 61.5625 7.734375 C61.6953125 9.546875 61.6953125 9.546875 61.6875 11.734375 C61.69136719 12.8171875 61.69136719 12.8171875 61.6953125 13.921875 C61.5625 15.734375 61.5625 15.734375 60.5625 16.734375 C58.90511557 16.82784415 57.24375356 16.85182477 55.58374023 16.84790039 C54.52271591 16.84782486 53.46169159 16.84774933 52.36851501 16.84767151 C51.214366 16.84251022 50.06021698 16.83734894 48.87109375 16.83203125 C47.69611832 16.8306163 46.52114288 16.82920135 45.31056213 16.82774353 C41.54034936 16.82212492 37.77019496 16.80956926 34 16.796875 C31.45117273 16.7918624 28.90234453 16.78729908 26.35351562 16.78320312 C20.08982367 16.77214944 13.82616601 16.75539321 7.5625 16.734375 C7.26601563 17.36859375 6.96953125 18.0028125 6.6640625 18.65625 C5.24510234 21.33315357 4.4502546 21.8224525 1.5625 22.734375 C-5.44290541 23.51275338 -5.44290541 23.51275338 -9.3125 20.484375 C-11.90583775 17.12829085 -13.1957946 15.09396786 -13.9375 10.921875 C-13.32254841 7.00155863 -12.10729897 4.97349712 -9.4140625 2.1015625 C-6.33973371 -0.02494951 -3.65582258 -0.02343476 0 0 Z " fill="#F2F2F3" transform="translate(37.4375,67.265625)"/>
<path d="M0 0 C4.29 0 8.58 0 13 0 C13.839123 3.24860474 14.67149719 6.49868626 15.5 9.75 C15.73847656 10.67039062 15.97695313 11.59078125 16.22265625 12.5390625 C16.44824219 13.42851562 16.67382812 14.31796875 16.90625 15.234375 C17.11572266 16.05131836 17.32519531 16.86826172 17.54101562 17.70996094 C18 20 18 20 18 24 C10.41 24 2.82 24 -5 24 C-5 18.46372205 -4.54900469 14.35683292 -3.0625 9.1875 C-2.78889648 8.18686523 -2.78889648 8.18686523 -2.50976562 7.16601562 C-1.81945574 4.67838982 -1.15737384 2.31474768 0 0 Z " fill="#29282A" transform="translate(29,17)"/>
<path d="M0 0 C3.96 0 7.92 0 12 0 C15.26258135 8.00815422 17 15.31612607 17 24 C9.74 24 2.48 24 -5 24 C-4.01730473 15.60929427 -3.05543452 7.91635307 0 0 Z " fill="#282728" transform="translate(84,17)"/>
<path d="M0 0 C1.67542976 0.28604898 3.34385343 0.61781233 5 1 C5.38218767 2.65614657 5.71395102 4.32457024 6 6 C5 7 5 7 2.5 7.125 C0 7 0 7 -1 6 C-1.125 3.5 -1.125 3.5 -1 1 C-0.67 0.67 -0.34 0.34 0 0 Z " fill="#2F2F30" transform="translate(33,75)"/>
</svg>
